<svg xmlns="http://www.w3.org/2000/svg" viewBox="0 0 64 56"><defs><style>.cls-1{fill:#ff2400;}.cls-2{fill:#ba1d08;}</style></defs><title>No Sound</title><g id="Layer_2" data-name="Layer 2"><g id="Layer_1-2" data-name="Layer 1"><circle class="cls-1" cx="32" cy="28" r="12"/><path class="cls-2" d="M4,14H16a0,0,0,0,1,0,0V42a0,0,0,0,1,0,0H4a4,4,0,0,1-4-4V18A4,4,0,0,1,4,14Z"/><path class="cls-1" d="M39.14,3.52a4,4,0,0,0-4.63-1.23l-20,8A4,4,0,0,0,12,14V42a4,4,0,0,0,2.51,3.71l20,8a4,4,0,0,0,5.13-2A4,4,0,0,0,40,49.93V6.19A4.26,4.26,0,0,0,39.14,3.52Z"/><path class="cls-2" d="M36,0a4,4,0,0,0-4,4V52a4,4,0,0,0,8,0V4A4,4,0,0,0,36,0Z"/><path class="cls-1" d="M56.3,28l7.43-13a2,2,0,0,0-3.47-2L54,24,47.74,13a2,2,0,1,0-3.47,2L51.7,28,44.26,41a2,2,0,1,0,3.47,2L54,32l6.26,11a2,2,0,1,0,3.47-2Z"/></g></g></svg>